<mxfile host="app.diagrams.net" modified="2020-12-13T21:15:35.776Z" agent="5.0 (Windows NT 10.0; Win64; x64) AppleWebKit/537.36 (KHTML, like Gecko) Chrome/85.0.4183.121 Safari/537.36 OPR/71.0.3770.456" etag="zDVIS4TGQqZK27iEY-Mx" version="14.0.1" type="github">
  <diagram name="Page-1" id="42789a77-a242-8287-6e28-9cd8cfd52e62">
    <mxGraphModel dx="997" dy="588" grid="1" gridSize="10" guides="1" tooltips="1" connect="1" arrows="1" fold="1" page="1" pageScale="1" pageWidth="1100" pageHeight="850" background="#DAD2D8" math="0" shadow="0">
      <root>
        <mxCell id="0" />
        <mxCell id="1" parent="0" />
        <mxCell id="1ea317790d2ca983-12" style="edgeStyle=none;rounded=1;html=1;labelBackgroundColor=none;startArrow=none;startFill=0;startSize=5;endArrow=classicThin;endFill=1;endSize=5;jettySize=auto;orthogonalLoop=1;strokeColor=#A8201A;strokeWidth=1;fontFamily=Verdana;fontSize=12;fontColor=#143642;" parent="1" source="1ea317790d2ca983-1" target="1ea317790d2ca983-2" edge="1">
          <mxGeometry relative="1" as="geometry" />
        </mxCell>
        <mxCell id="1ea317790d2ca983-1" value="Main" style="ellipse;whiteSpace=wrap;html=1;rounded=0;shadow=1;comic=0;labelBackgroundColor=none;strokeWidth=1;fontFamily=Verdana;fontSize=12;align=center;fillColor=#FAE5C7;strokeColor=#0F8B8D;fontColor=#143642;" parent="1" vertex="1">
          <mxGeometry x="421.25" y="80" width="90" height="60" as="geometry" />
        </mxCell>
        <mxCell id="1ea317790d2ca983-21" value="" style="edgeStyle=none;rounded=1;html=1;labelBackgroundColor=none;startArrow=none;startFill=0;startSize=5;endArrow=classicThin;endFill=1;endSize=5;jettySize=auto;orthogonalLoop=1;strokeColor=#A8201A;strokeWidth=1;fontFamily=Verdana;fontSize=12;fontColor=#143642;" parent="1" source="1ea317790d2ca983-2" target="1ea317790d2ca983-7" edge="1">
          <mxGeometry relative="1" as="geometry" />
        </mxCell>
        <mxCell id="1ea317790d2ca983-22" value="" style="edgeStyle=none;rounded=1;html=1;labelBackgroundColor=none;startArrow=none;startFill=0;startSize=5;endArrow=classicThin;endFill=1;endSize=5;jettySize=auto;orthogonalLoop=1;strokeColor=#A8201A;strokeWidth=1;fontFamily=Verdana;fontSize=12;fontColor=#143642;" parent="1" source="1ea317790d2ca983-2" target="1ea317790d2ca983-6" edge="1">
          <mxGeometry relative="1" as="geometry" />
        </mxCell>
        <mxCell id="iX5LJw5THiElFpQCmpSn-6" style="edgeStyle=orthogonalEdgeStyle;rounded=0;orthogonalLoop=1;jettySize=auto;html=1;entryX=0.5;entryY=0;entryDx=0;entryDy=0;labelBackgroundColor=#DAD2D8;strokeColor=#A8201A;fontColor=#143642;" edge="1" parent="1" source="1ea317790d2ca983-2" target="1ea317790d2ca983-6">
          <mxGeometry relative="1" as="geometry">
            <Array as="points">
              <mxPoint x="678" y="215" />
            </Array>
          </mxGeometry>
        </mxCell>
        <mxCell id="1ea317790d2ca983-2" value="&lt;span&gt;Gameboard.h&lt;/span&gt;" style="ellipse;whiteSpace=wrap;html=1;rounded=0;shadow=1;comic=0;labelBackgroundColor=none;strokeWidth=1;fontFamily=Verdana;fontSize=12;align=center;fillColor=#FAE5C7;strokeColor=#0F8B8D;fontColor=#143642;" parent="1" vertex="1">
          <mxGeometry x="400" y="190" width="132.5" height="50" as="geometry" />
        </mxCell>
        <mxCell id="1ea317790d2ca983-6" value="&lt;span&gt;IA.h&lt;/span&gt;" style="ellipse;whiteSpace=wrap;html=1;rounded=0;shadow=1;comic=0;labelBackgroundColor=none;strokeWidth=1;fontFamily=Verdana;fontSize=12;align=center;fillColor=#FAE5C7;strokeColor=#0F8B8D;fontColor=#143642;" parent="1" vertex="1">
          <mxGeometry x="640" y="310" width="75" height="50" as="geometry" />
        </mxCell>
        <mxCell id="1ea317790d2ca983-24" value="" style="edgeStyle=none;rounded=1;html=1;labelBackgroundColor=none;startArrow=none;startFill=0;startSize=5;endArrow=classicThin;endFill=1;endSize=5;jettySize=auto;orthogonalLoop=1;strokeColor=#A8201A;strokeWidth=1;fontFamily=Verdana;fontSize=12;entryX=0.5;entryY=0;entryDx=0;entryDy=0;fontColor=#143642;" parent="1" source="1ea317790d2ca983-7" target="iX5LJw5THiElFpQCmpSn-2" edge="1">
          <mxGeometry relative="1" as="geometry">
            <mxPoint x="470" y="450" as="targetPoint" />
          </mxGeometry>
        </mxCell>
        <mxCell id="1ea317790d2ca983-7" value="&lt;span&gt;Pieces.h&lt;/span&gt;" style="ellipse;whiteSpace=wrap;html=1;rounded=0;shadow=1;comic=0;labelBackgroundColor=none;strokeWidth=1;fontFamily=Verdana;fontSize=12;align=center;fillColor=#FAE5C7;strokeColor=#0F8B8D;fontColor=#143642;" parent="1" vertex="1">
          <mxGeometry x="428.75" y="320" width="75" height="50" as="geometry" />
        </mxCell>
        <mxCell id="1ea317790d2ca983-10" value="&lt;span&gt;Interface.h&lt;/span&gt;" style="ellipse;whiteSpace=wrap;html=1;rounded=0;shadow=1;comic=0;labelBackgroundColor=none;strokeWidth=1;fontFamily=Verdana;fontSize=12;align=center;fillColor=#FAE5C7;strokeColor=#0F8B8D;fontColor=#143642;" parent="1" vertex="1">
          <mxGeometry x="210" y="320" width="105" height="50" as="geometry" />
        </mxCell>
        <mxCell id="iX5LJw5THiElFpQCmpSn-1" value="" style="edgeStyle=none;rounded=1;html=1;labelBackgroundColor=none;startArrow=none;startFill=0;startSize=5;endArrow=classicThin;endFill=1;endSize=5;jettySize=auto;orthogonalLoop=1;strokeColor=#A8201A;strokeWidth=1;fontFamily=Verdana;fontSize=12;exitX=0;exitY=1;exitDx=0;exitDy=0;entryX=0.5;entryY=0;entryDx=0;entryDy=0;fontColor=#143642;" edge="1" parent="1" source="1ea317790d2ca983-2" target="1ea317790d2ca983-10">
          <mxGeometry x="-0.1975" y="48" relative="1" as="geometry">
            <mxPoint x="293.4473407712047" y="238.1275335402196" as="sourcePoint" />
            <mxPoint x="249.99769103862027" y="320.0041200732261" as="targetPoint" />
            <mxPoint as="offset" />
          </mxGeometry>
        </mxCell>
        <mxCell id="iX5LJw5THiElFpQCmpSn-2" value="&lt;span&gt;enums.h&lt;/span&gt;" style="ellipse;whiteSpace=wrap;html=1;rounded=0;shadow=1;comic=0;labelBackgroundColor=none;strokeWidth=1;fontFamily=Verdana;fontSize=12;align=center;fillColor=#FAE5C7;strokeColor=#0F8B8D;fontColor=#143642;" vertex="1" parent="1">
          <mxGeometry x="428.75" y="450" width="75" height="50" as="geometry" />
        </mxCell>
      </root>
    </mxGraphModel>
  </diagram>
</mxfile>
